HIERARCHY
ROOT Hips
{
	OFFSET 0.000000 0.000000 0.000000
	CHANNELS 6 Xposition Yposition Zposition Zrotation Yrotation Xrotation 
	JOINT LHipJoint
	{
		OFFSET 0.000000 0.000000 0.000000
		CHANNELS 3 Zrotation Yrotation Xrotation
		JOINT LeftUpLeg
		{
			OFFSET 1.363060 -1.794630 0.839290
			CHANNELS 3 Zrotation Yrotation Xrotation
			JOINT LeftLeg
			{
				OFFSET 2.448110 -6.726130 0.000000
				CHANNELS 3 Zrotation Yrotation Xrotation
				JOINT LeftFoot
				{
					OFFSET 2.562200 -7.039590 0.000000
					CHANNELS 3 Zrotation Yrotation Xrotation
					JOINT LeftToeBase
					{
						OFFSET 0.157640 -0.433110 2.322550
						CHANNELS 3 Zrotation Yrotation Xrotation
						End Site
						{
							OFFSET 0.000000 0.000000 0.000000
						}
					}
				}
			}
		}
	}
	JOINT RHipJoint
	{
		OFFSET 0.000000 0.000000 0.000000
		CHANNELS 3 Zrotation Yrotation Xrotation
		JOINT RightUpLeg
		{
			OFFSET -1.305520 -1.794630 0.839290
			CHANNELS 3 Zrotation Yrotation Xrotation
			JOINT RightLeg
			{
				OFFSET -2.542530 -6.985550 0.000000
				CHANNELS 3 Zrotation Yrotation Xrotation
				JOINT RightFoot
				{
					OFFSET -2.568260 -7.056230 0.000000
					CHANNELS 3 Zrotation Yrotation Xrotation
					JOINT RightToeBase
					{
						OFFSET -0.164730 -0.452590 2.363150
						CHANNELS 3 Zrotation Yrotation Xrotation
						End Site
						{
							OFFSET 0.000000 0.000000 0.000000
						}
					}
				}
			}
		}
	}
	JOINT LowerBack
	{
		OFFSET 0.000000 0.000000 0.000000
		CHANNELS 3 Zrotation Yrotation Xrotation
		JOINT Spine
		{
			OFFSET 0.028270 2.035590 -0.193380
			CHANNELS 3 Zrotation Yrotation Xrotation
			JOINT Spine1
			{
				OFFSET 0.056720 2.048850 -0.042750
				CHANNELS 3 Zrotation Yrotation Xrotation
				JOINT Neck
				{
					OFFSET 0.000000 0.000000 0.000000
					CHANNELS 3 Zrotation Yrotation Xrotation
					JOINT Neck1
					{
						OFFSET -0.054170 1.746240 0.172020
						CHANNELS 3 Zrotation Yrotation Xrotation
						JOINT Head
						{
							OFFSET 0.104070 1.761360 -0.123970
							CHANNELS 3 Zrotation Yrotation Xrotation
							End Site
							{
								OFFSET 0.000000 0.000000 0.000000
							}
						}
					}
				}
				JOINT LeftShoulder
				{
					OFFSET 0.000000 0.000000 0.000000
					CHANNELS 3 Zrotation Yrotation Xrotation
					JOINT LeftArm
					{
						OFFSET 3.362410 1.200890 -0.311210
						CHANNELS 3 Zrotation Yrotation Xrotation
						JOINT LeftForeArm
						{
							OFFSET 4.983000 -0.000000 -0.000000
							CHANNELS 3 Zrotation Yrotation Xrotation
							JOINT LeftHand
							{
								OFFSET 3.483560 -0.000000 -0.000000
								CHANNELS 3 Zrotation Yrotation Xrotation
								JOINT LeftFingerBase
								{
									OFFSET 0.000000 0.000000 0.000000
									CHANNELS 3 Zrotation Yrotation Xrotation
									JOINT LeftHandIndex1
									{
										OFFSET 0.715260 -0.000000 -0.000000
										CHANNELS 3 Zrotation Yrotation Xrotation
										End Site
										{
											OFFSET 0.000000 0.000000 0.000000
										}
									}
								}
								JOINT LThumb
								{
									OFFSET 0.000000 0.000000 0.000000
									CHANNELS 3 Zrotation Yrotation Xrotation
									End Site
									{
										OFFSET 0.000000 0.000000 0.000000
									}
								}
							}
						}
					}
				}
				JOINT RightShoulder
				{
					OFFSET 0.000000 0.000000 0.000000
					CHANNELS 3 Zrotation Yrotation Xrotation
					JOINT RightArm
					{
						OFFSET -3.136600 1.374050 -0.404650
						CHANNELS 3 Zrotation Yrotation Xrotation
						JOINT RightForeArm
						{
							OFFSET -5.241900 -0.000000 -0.000000
							CHANNELS 3 Zrotation Yrotation Xrotation
							JOINT RightHand
							{
								OFFSET -3.444170 -0.000000 -0.000000
								CHANNELS 3 Zrotation Yrotation Xrotation
								JOINT RightFingerBase
								{
									OFFSET 0.000000 0.000000 0.000000
									CHANNELS 3 Zrotation Yrotation Xrotation
									JOINT RightHandIndex1
									{
										OFFSET -0.622530 -0.000000 -0.000000
										CHANNELS 3 Zrotation Yrotation Xrotation
										End Site
										{
											OFFSET 0.000000 0.000000 0.000000
										}
									}
								}
								JOINT RThumb
								{
									OFFSET 0.000000 0.000000 0.000000
									CHANNELS 3 Zrotation Yrotation Xrotation
									End Site
									{
										OFFSET 0.000000 0.000000 0.000000
									}
								}
							}
						}
					}
				}
			}
		}
	}
}
MOTION
Frames: 7
Frame Time: 0.008333
17.577222 16.602208 1.620227 136.652804 -86.412914 -82.091434 -8.290535 -0.288465 2.794311 -12.414169 -9.863648 -61.499545 -3.262943 -1.171411 18.276104 3.624114 12.376096 -14.422234 -0.656000 0.000000 -35.690400 8.660922 1.044152 4.869054 -0.981671 7.459574 -64.765058 1.881821 0.364325 19.653128 -3.474930 -9.900519 -12.262698 -0.538000 -0.000000 -58.900500 -0.181967 -2.649662 -3.361156 -0.702473 -2.805151 -3.249368 -5.150087 -3.005839 2.121003 10.803718 -14.195461 -13.108678 -1.769410 -0.038997 -1.974075 0.000000 0.000000 0.000000 -6.528530 15.473297 2.889817 -58.688382 43.868508 -4.201250 -2.450015 -8.889461 -0.002025 2.188775 3.185641 0.066648 -0.119978 -0.124499 -0.000000 0.000000 0.000000 0.000000 0.000000 0.000000 0.000000 15.114370 -13.913916 2.855295 53.723725 -40.346008 -24.087099 2.144250 3.155517 0.007150 -9.479129 4.661267 -0.400217 0.209359 -0.059896 -0.000000 0.000000 0.000000 0.000000 0.000000 0.000000 0.000000 
17.546166 16.506333 1.615565 133.636640 -86.319893 -78.076869 -8.200254 -0.215465 2.938298 -12.386481 -10.646922 -63.962386 -3.228155 -0.850910 21.122873 3.796878 12.455376 -15.615463 -0.936700 -0.000000 -35.461000 8.686113 1.138953 4.986766 -1.422712 7.460758 -67.414783 1.809358 -0.025914 22.821358 -3.619205 -9.872806 -13.703342 -0.249800 0.000000 -58.548800 -0.216829 -2.675441 -3.566211 -0.721185 -2.836537 -3.310170 -5.147146 -3.040871 2.087721 10.857321 -14.261862 -13.234950 -1.770479 -0.036293 -2.027860 0.000000 0.000000 0.000000 -6.609694 15.485025 2.939645 -58.421853 43.971645 -3.542896 -2.426668 -9.431981 -0.002839 1.831242 3.322375 0.058447 -0.114838 -0.123043 -0.000000 0.000000 0.000000 0.000000 0.000000 0.000000 0.000000 15.282184 -13.956795 2.920772 53.903500 -40.671130 -24.250677 2.126673 3.576322 0.006701 -8.820134 4.634761 -0.370715 0.202135 -0.062848 -0.000000 0.000000 0.000000 0.000000 0.000000 0.000000 0.000000 
17.514168 16.399370 1.610884 130.747724 -86.209634 -74.190222 -8.124960 -0.140393 3.092837 -12.348520 -11.427579 -66.535943 -3.176428 -0.494313 24.171121 3.965454 12.499953 -16.858200 -1.234900 -0.000001 -35.325500 8.715601 1.238357 5.112805 -1.868695 7.425725 -70.149363 1.728650 -0.447053 26.157595 -3.754589 -9.828812 -15.163419 0.047000 0.000000 -58.256600 -0.258054 -2.700846 -3.806761 -0.741758 -2.868741 -3.379783 -5.148446 -3.077135 2.056044 10.919907 -14.321043 -13.356430 -1.775885 -0.034118 -2.079013 0.000000 0.000000 0.000000 -6.681143 15.491813 2.985315 -58.151928 44.056015 -2.918479 -2.406309 -9.990912 -0.003595 1.490524 3.459844 0.049944 -0.109983 -0.121552 -0.000000 0.000000 0.000000 0.000000 0.000000 0.000000 0.000000 15.469881 -13.994148 2.980643 54.076278 -40.947098 -24.408063 2.110290 3.975672 0.006447 -8.200191 4.666573 -0.347511 0.195168 -0.066212 -0.000000 0.000000 0.000000 0.000000 0.000000 0.000000 0.000000 
17.480850 16.281331 1.606401 127.996286 -86.089982 -70.446530 -8.067372 -0.071277 3.257202 -12.274894 -12.204851 -69.204448 -3.099263 -0.105520 27.405651 4.129256 12.525326 -18.132125 -1.545400 0.000001 -35.311101 8.747703 1.340753 5.246680 -2.314007 7.362289 -72.941981 1.635727 -0.892686 29.625496 -3.881428 -9.784687 -16.616103 0.346099 0.000000 -58.042900 -0.298223 -2.725790 -4.081591 -0.761863 -2.901882 -3.456639 -5.152304 -3.114675 2.030296 10.987279 -14.374319 -13.472130 -1.784753 -0.032422 -2.127085 0.000000 0.000000 0.000000 -6.732882 15.502353 3.027925 -57.890714 44.092070 -2.343963 -2.387599 -10.512408 -0.004254 1.178025 3.586895 0.041442 -0.105508 -0.119981 -0.000000 0.000000 0.000000 0.000000 0.000000 0.000000 0.000000 15.669427 -14.028755 3.034332 54.241832 -41.159287 -24.537031 2.092867 4.344307 0.006323 -7.667921 4.736794 -0.330207 0.188937 -0.069696 -0.000000 0.000000 0.000000 0.000000 0.000000 0.000000 0.000000 
17.446447 16.152632 1.602342 125.364678 -85.968511 -66.837901 -8.029847 -0.017094 3.429768 -12.142130 -12.973222 -71.942215 -2.989458 0.308342 30.799019 4.287145 12.546470 -19.416346 -1.863400 0.000000 -35.438300 8.779839 1.443803 5.386472 -2.748995 7.276657 -75.757973 1.528115 -1.354928 33.183621 -3.999657 -9.751952 -18.039439 0.643200 -0.000000 -57.920600 -0.325059 -2.748521 -4.387292 -0.776662 -2.934346 -3.538894 -5.152580 -3.151892 2.015483 11.039070 -14.422271 -13.580629 -1.792580 -0.030847 -2.171483 0.000000 0.000000 0.000000 -6.785556 15.503617 3.065112 -57.643926 44.079055 -1.826964 -2.370916 -10.975693 -0.004827 0.894137 3.704238 0.033142 -0.101420 -0.118320 -0.000000 0.000000 0.000000 0.000000 0.000000 0.000000 0.000000 15.843302 -14.064392 3.097275 54.480035 -41.264058 -24.620221 2.057138 4.747632 0.005387 -7.494177 4.469679 -0.304809 0.185629 -0.069709 -0.000000 0.000000 0.000000 0.000000 0.000000 0.000000 0.000000 
17.411144 16.013676 1.598915 122.823606 -85.855551 -63.338383 -8.010350 0.015339 3.608601 -11.929790 -13.725866 -74.727116 -2.842822 0.737694 34.316459 4.437994 12.575516 -20.692009 -2.184800 0.000000 -35.713000 8.812456 1.546310 5.530374 -3.163101 7.175655 -78.569864 1.404613 -1.825543 36.790350 -4.109295 -9.737162 -19.419987 0.936200 0.000000 -57.888300 -0.335514 -2.770754 -4.718625 -0.788327 -2.968366 -3.627034 -5.160611 -3.190911 2.002340 11.099284 -14.449244 -13.674188 -1.808373 -0.030343 -2.209868 0.000000 0.000000 0.000000 -6.820322 15.499614 3.100410 -57.423896 44.017777 -1.402578 -2.354384 -11.352137 -0.005285 0.646475 3.802567 0.025440 -0.097701 -0.116677 -0.000000 0.000000 0.000000 0.000000 0.000000 0.000000 0.000000 16.041938 -14.083353 3.141080 54.648646 -41.323974 -24.688416 2.032167 5.035501 0.005243 -7.236328 4.524628 -0.298108 0.181875 -0.072419 -0.000000 0.000000 0.000000 0.000000 0.000000 0.000000 0.000000 
17.374702 15.865738 1.596323 120.299670 -85.756343 -59.895757 -8.007801 0.019282 3.788571 -11.630871 -14.448448 -77.508886 -2.658836 1.171126 37.909447 4.579647 12.620070 -21.943726 -2.506700 -0.000001 -36.134600 8.843806 1.647122 5.671223 -3.541129 7.059108 -81.328987 1.266008 -2.297347 40.407555 -4.209091 -9.739985 -20.751958 1.225100 0.000000 -57.951900 -0.318434 -2.790180 -5.062670 -0.794099 -3.001822 -3.720178 -5.177106 -3.229762 1.984213 11.151248 -14.426656 -13.741806 -1.834225 -0.031346 -2.238835 0.000000 0.000000 0.000000 -6.885145 15.431688 3.128681 -57.232079 43.982688 -1.108121 -2.340335 -11.683243 -0.005682 0.417901 3.894124 0.017839 -0.094194 -0.115205 -0.000000 0.000000 0.000000 0.000000 0.000000 0.000000 0.000000 16.248978 -14.059352 3.181048 54.839804 -41.342737 -24.784764 2.003252 5.288312 0.005009 -7.114159 4.553262 -0.295006 0.179336 -0.074663 -0.000000 0.000000 0.000000 0.000000 0.000000 0.000000 0.000000 
